<?xml version="1.0" encoding="UTF-8" standalone="no"?>
<!-- Created with Inkscape (http://www.inkscape.org/) -->

<svg
   xmlns:dc="http://purl.org/dc/elements/1.1/"
   xmlns:cc="http://creativecommons.org/ns#"
   xmlns:rdf="http://www.w3.org/1999/02/22-rdf-syntax-ns#"
   xmlns:svg="http://www.w3.org/2000/svg"
   xmlns="http://www.w3.org/2000/svg"
   xmlns:sodipodi="http://sodipodi.sourceforge.net/DTD/sodipodi-0.dtd"
   xmlns:inkscape="http://www.inkscape.org/namespaces/inkscape"
   width="270.17264"
   height="272.0025"
   id="svg2"
   version="1.1"
   inkscape:version="0.48.5 r10040"
   sodipodi:docname="logo.svg"
   inkscape:export-filename="/home/devmessias/Trabalho/projetos/bibcure/logo/logo.png"
   inkscape:export-xdpi="90"
   inkscape:export-ydpi="90"
   style="enable-background:new">
  <defs
     id="defs4">
    <filter
       inkscape:collect="always"
       id="filter4135"
       color-interpolation-filters="sRGB">
      <feBlend
         inkscape:collect="always"
         mode="multiply"
         in2="BackgroundImage"
         id="feBlend4137" />
    </filter>
  </defs>
  <sodipodi:namedview
     id="base"
     pagecolor="#ffffff"
     bordercolor="#666666"
     borderopacity="1.0"
     inkscape:pageopacity="0.0"
     inkscape:pageshadow="2"
     inkscape:zoom="0.98994949"
     inkscape:cx="-67.779101"
     inkscape:cy="69.21272"
     inkscape:document-units="px"
     inkscape:current-layer="layer4"
     showgrid="false"
     fit-margin-top="0"
     fit-margin-left="0"
     fit-margin-right="0"
     fit-margin-bottom="0"
     inkscape:window-width="1366"
     inkscape:window-height="708"
     inkscape:window-x="0"
     inkscape:window-y="27"
     inkscape:window-maximized="1" />
  <metadata
     id="metadata7">
    <rdf:RDF>
      <cc:Work
         rdf:about="">
        <dc:format>image/svg+xml</dc:format>
        <dc:type
           rdf:resource="http://purl.org/dc/dcmitype/StillImage" />
        <dc:title></dc:title>
      </cc:Work>
    </rdf:RDF>
  </metadata>
  <g
     inkscape:groupmode="layer"
     id="layer4"
     inkscape:label="bandage"
     style="display:inline"
     transform="translate(6.725256,6.8188697)">
    <g
       style="display:inline;filter:url(#filter4135)"
       transform="matrix(0.26196601,0,0,0.26392427,-2.6206252,-2.7822648)"
       id="g3122">
      <g
         transform="matrix(0.1,0,0,-0.1,0,511)"
         id="g3124">
        <path
           inkscape:connector-curvature="0"
           d="M 7310.1,4981.5 C 7054.5,4909.8 7209.4,5057 3658,1509.5 1818.5,-330.1 286.8,-1873.5 255.8,-1920 124.1,-2117.5 68,-2431.2 118.3,-2681 c 54.2,-259.5 81.3,-292.4 910.1,-1125.1 422.1,-424.1 807.5,-797.8 857.8,-828.8 149.1,-96.8 280.8,-137.5 470.5,-147.2 209.1,-11.6 352.4,13.6 517,94.9 110.4,54.2 433.8,369.8 3468.1,3402.3 1839.6,1837.7 3371.3,3381 3402.3,3427.5 131.7,197.5 187.8,511.2 137.5,761 -54.2,259.5 -81.3,292.4 -910.1,1125 -422.1,424.1 -807.5,797.8 -857.8,828.8 -162.7,104.6 -276.9,137.5 -499.6,145.2 -139.4,6 -236.2,-1.8 -304,-21.1 z m 565.5,-271.1 c 123.9,-60 199.5,-129.7 912.1,-846.2 712.6,-716.5 780.4,-790.1 830.7,-904.3 94.9,-220.8 69.7,-468.6 -69.7,-670 -29,-42.6 -474.4,-497.7 -989.5,-1010.8 L 7623.9,343.8 6427.1,1540.4 5232.4,2735.2 l 972.1,970.2 c 732,728.1 997.3,981.8 1063.1,1012.7 207.1,96.8 398.8,94.9 608,-7.7 z M 6258.7,1360.4 7449.6,169.5 6204.5,-1075.7 4961.3,-2318.8 3766.5,-1122.1 2569.8,72.6 3809.1,1311.9 c 681.6,681.6 1243.2,1239.3 1249,1239.3 5.8,0.1 546.1,-536.3 1200.6,-1190.8 z M 3842,-3438.1 c -519,-520.9 -977.9,-970.2 -1020.5,-999.2 -201.4,-139.4 -449.3,-164.6 -670,-69.7 -114.2,50.4 -187.8,118.1 -902.4,830.7 -832.7,828.8 -875.3,879.1 -917.9,1103.7 -23.2,127.8 0,282.7 62,416.3 31,65.8 294.3,340.8 1022.4,1072.8 l 979.8,981.8 1194.8,-1194.8 1196.8,-1196.6 -945,-945 z"
           id="path3126" />
        <path
           inkscape:connector-curvature="0"
           d="m 4864.5,1732.2 c -36.8,-11.6 -108.4,-62 -156.9,-110.4 -162.7,-162.7 -168.5,-356.3 -13.5,-532.5 187.8,-213 491.8,-178.2 635.1,73.6 67.8,118.1 73.6,218.8 21.3,333.1 -89.1,195.5 -300.1,298.1 -486,236.2 z m 232.3,-265.3 c 56.2,-56.2 54.2,-199.4 -3.9,-240.1 -61.9,-44.5 -182,-38.7 -228.5,7.7 -50.4,50.3 -50.4,154.9 1.9,220.7 50.4,64 170.5,71.7 230.5,11.7 z"
           id="path3128" />
      </g>
    </g>
  </g>
  <g
     inkscape:label="text"
     inkscape:groupmode="layer"
     id="layer1"
     transform="translate(-190.2196,-221.81648)"
     style="display:inline">
    <g
       id="g3045"
       transform="matrix(0.09486135,0,0,0.09557046,420.23949,267.55973)"
       style="display:inline" />
    <g
       style="font-size:49.19118881px;font-style:normal;font-variant:normal;font-weight:normal;font-stretch:normal;line-height:125%;letter-spacing:0px;word-spacing:0px;fill:#000000;fill-opacity:1;stroke:none;font-family:TeX Gyre Bonum Math;-inkscape-font-specification:TeX Gyre Bonum Math"
       id="text2985"
       transform="translate(-4,0)">
      <path
         d="m 308.98473,446.02763 c 0,-21.82857 -23.82699,-26.28654 -28.13121,-27.3626 2.92072,-0.61489 22.28976,-4.30425 22.28976,-21.52114 0,-19.9839 -19.06161,-24.90304 -43.19601,-24.90304 l -54.11031,0 0,4.76539 3.84306,0.46117 c 7.99356,1.07606 9.99196,4.30424 9.99196,16.90947 l 0,60.41293 c 0,12.60523 -1.9984,15.83341 -9.99196,16.90947 l -3.84306,0.46117 0,4.76539 56.1087,0 c 41.04385,0 47.03907,-18.60043 47.03907,-30.89821 m -21.52114,-48.42258 c 0,13.52757 -9.99199,18.90787 -34.58756,18.90787 l -17.8318,0 0,-25.21049 c 0,-11.068 3.07446,-13.06641 20.75253,-13.06641 21.21368,0 31.66683,6.30264 31.66683,19.36903 m 4.1505,47.65397 c 0,20.29134 -16.2946,25.3642 -36.58594,25.3642 -19.67646,0 -19.98392,-5.68774 -19.98392,-17.37064 l 0,-30.1296 18.13925,0 c 22.13601,0 38.43061,0.76864 38.43061,22.13604"
         style="font-size:153.72245789px"
         id="path4147"
         inkscape:connector-curvature="0" />
      <path
         d="m 359.13428,476.92584 0,-4.61167 -3.68934,-0.30745 c -6.9175,-0.76861 -9.53079,-4.30423 -9.53079,-12.75896 l 0,-56.87731 -5.22656,0 c -9.37706,1.69095 -14.44992,2.45956 -22.59721,3.07445 l 0,4.61167 3.07445,0.30745 c 7.99356,0.76861 10.14569,3.53562 10.14569,12.75896 l 0,36.12478 c 0,8.45473 -2.76701,11.99035 -9.5308,12.75896 l -3.84306,0.30745 0,4.61167 41.19762,0"
         style="font-size:153.72245789px"
         id="path4149"
         inkscape:connector-curvature="0"
         sodipodi:nodetypes="cccscccccsscccc" />
      <path
         d="m 450.56552,438.80267 c 0,-21.98229 -14.60366,-37.81572 -35.04873,-37.81572 -10.60683,0 -18.13925,3.07446 -26.7477,11.06802 l 0,-45.34813 -6.1489,0 c -7.83984,3.07445 -11.37547,3.99679 -21.82859,5.22656 l 0,4.7654 3.38189,0.30744 c 8.30101,0.76862 9.99196,3.53563 9.99196,17.21692 l 0,82.70268 8.60846,0 3.68934,-8.9159 c 10.14567,7.68611 17.0632,10.2994 26.90143,10.2994 21.82857,0 37.20084,-16.2946 37.20084,-39.50667 m -15.6797,0.46117 c 0,19.36901 -9.83825,31.66683 -25.05676,31.66683 -8.301,0 -15.21853,-2.92074 -21.05997,-8.60846 l 0,-41.96623 c 7.83983,-8.76217 13.83503,-11.99035 22.75092,-11.99035 14.4499,0 23.36581,11.83664 23.36581,30.89821"
         style="font-size:153.72245789px"
         id="path4151"
         inkscape:connector-curvature="0" />
    </g>
  </g>
  <g
     inkscape:groupmode="layer"
     id="layer5"
     inkscape:label="dots"
     transform="translate(6.725256,6.8188697)">
    <path
       transform="matrix(0.26196601,0,0,0.26392427,-2.62063,-2.78226)"
       style="display:inline"
       inkscape:connector-curvature="0"
       d="m 396.63334,457.43188 c -10.65,2.9 -25.37,17.81 -28.27,28.85 -4.65,17.04 3.29,34.66001 19.94,44.54001 8.71,5.03 11.62,5.61 21.11,5.03 25.95,-1.55 44.54,-29.05001 35.63,-52.67001 -4.26,-11.04 -17.81,-23.04 -29.24,-25.95 -9.68,-2.32 -8.9,-2.52 -19.17,0.2 z m 18.79,24.98 c 5.81,3.1 7.17,5.42 7.17,13.36 0,11.04 -4.45,15.49 -15.49,15.49 -11.23,0 -15.49,-4.45 -15.49,-15.69 -0.01,-12 12.58,-18.97 23.81,-13.16 z"
       id="path3130" />
    <path
       style="display:inline"
       inkscape:connector-curvature="0"
       d="m 157.40739,120.90518 c -7.20407,3.93511 -8.41959,12.31735 -2.53584,17.4797 2.33412,2.09556 3.75398,2.65772 6.69586,2.65772 6.34219,0 11.66796,-6.33682 10.34765,-12.26456 -0.60776,-2.76065 -2.38389,-5.31543 -4.86995,-7.00191 -2.53583,-1.73926 -7.30623,-2.14834 -9.63772,-0.87095 z m 7.50794,6.89898 c 2.03024,2.50464 0.15194,7.10484 -2.8921,7.10484 -1.87568,0 -3.80375,-1.02139 -4.16002,-2.24863 -0.50822,-1.63633 -0.35628,-3.88497 0.40604,-4.75328 1.5718,-1.94248 5.07167,-1.99263 6.64608,-0.10293 z"
       id="path3132" />
    <path
       style="display:inline"
       inkscape:connector-curvature="0"
       d="m 129.6485,146.11838 c -7.20407,3.93511 -8.41959,12.31735 -2.53584,17.4797 2.33412,2.09556 3.75398,2.65772 6.69586,2.65772 6.34219,0 11.66796,-6.33682 10.34765,-12.26456 -0.60776,-2.76065 -2.38389,-5.31543 -4.86995,-7.00191 -2.53583,-1.73926 -7.30623,-2.14834 -9.63772,-0.87095 z m 7.50794,6.89898 c 2.03024,2.50464 0.15194,7.10484 -2.8921,7.10484 -1.87568,0 -3.80375,-1.02139 -4.16002,-2.24863 -0.50822,-1.63633 -0.35628,-3.88497 0.40604,-4.75328 1.5718,-1.94248 5.07167,-1.99263 6.64608,-0.10293 z"
       id="path3132-0" />
  </g>
</svg>
